<svg width="2000" height="1000" xmlns="http://www.w3.org/2000/svg"><path fill="none" d="M0 0h2000v1000H0z"/><path d="M0 50h0c25.911 3.91 51.822 7.821 74 9 22.178 1.179 40.622-.374 60-5s39.691-12.326 63-9c23.309 3.326 49.613 17.679 70 17 20.387-.679 34.857-16.389 59-24 24.143-7.611 57.958-7.124 82-1s38.31 17.885 56 22c17.69 4.115 38.8.584 62-2 23.2-2.584 48.49-4.22 73-2 24.51 2.22 48.243 8.297 70 8 21.757-.297 41.538-6.967 61-14 19.462-7.033 38.605-14.427 64-10 25.395 4.427 57.044 20.676 79 22 21.956 1.324 34.22-12.277 56-20 21.78-7.723 53.075-9.567 75-4 21.925 5.567 34.48 18.546 53 22 18.52 3.454 43.004-2.616 66-3 22.996-.384 44.502 4.919 67 3 22.498-1.919 45.987-11.06 71-14 25.013-2.94 51.55.32 74 2 22.45 1.68 40.816 1.78 64 6 23.184 4.22 51.186 12.558 74 9s40.44-19.012 62-20c21.56-.988 47.057 12.491 71 12 23.943-.491 46.334-14.953 65-18 18.666-3.047 33.607 5.322 54 6 20.393.678 46.24-6.334 70-5 23.76 1.334 45.436 11.013 66 14s40.018-.718 63-2 49.49-.141 116 1" fill="none" stroke="#ffe39e" stroke-width="3" stroke-linecap="round"/><path d="M0 100h0c21.182-6.673 42.364-13.347 63-10 20.636 3.347 40.728 16.714 65 19 24.272 2.286 52.726-6.507 77-10 24.274-3.493 44.37-1.684 65 2 20.63 3.684 41.794 9.245 66 10 24.206.755 51.453-3.294 72-8 20.547-4.706 34.395-10.068 53-13 18.605-2.932 41.968-3.433 64-3 22.032.433 42.735 1.8 67 2 24.265.2 52.093-.765 74 0 21.907.765 37.893 3.261 60 6s50.335 5.72 77 7c26.665 1.28 51.768.86 71 0s32.594-2.16 54-4c21.406-1.84 50.856-4.22 72 0s33.983 15.037 57 13c23.017-2.037 56.21-16.93 83-22s47.173-.316 67 7c19.827 7.316 39.097 17.193 60 15 20.903-2.193 43.438-16.457 66-22 22.562-5.543 45.152-2.364 65-1 19.848 1.364 36.956.913 59 8 22.044 7.087 49.026 21.712 73 18 23.974-3.712 44.94-25.763 65-27 20.06-1.237 39.214 18.338 65 23 25.786 4.662 58.202-5.59 82-8 23.798-2.41 38.977 3.024 60 6 21.023 2.976 47.89 3.493 71-1s42.46-13.998 63-16c20.54-2.002 42.27 3.5 104 9" fill="none" stroke="#fff7e3" stroke-width="3" stroke-linecap="round"/><path d="M0 150h0c27.234-1.231 54.467-2.463 73-6s28.365-9.38 51-6c22.635 3.38 58.073 15.983 82 17 23.927 1.017 36.344-9.55 57-16 20.656-6.45 49.55-8.782 75-4 25.45 4.782 47.455 16.678 69 16 21.545-.678 42.628-13.93 61-14 18.372-.07 34.032 13.042 56 14 21.968.958 50.245-10.24 74-15 23.755-4.76 42.99-3.083 66-1 23.01 2.083 49.799 4.572 73 6s42.815 1.794 62 1c19.185-.794 37.94-2.75 59-2 21.06.75 44.426 4.203 69 6 24.574 1.797 50.358 1.938 75 3 24.642 1.062 48.144 3.047 69 7s39.067 9.875 59 5 41.589-20.547 66-21c24.411-.453 51.577 14.312 74 17 22.423 2.688 40.101-6.7 63-8 22.899-1.3 51.018 5.487 71 5 19.982-.487 31.828-8.247 55-8 23.172.247 57.67 8.502 79 7 21.33-1.502 29.495-12.76 52-14 22.505-1.24 59.35 7.538 84 15s37.108 13.607 59 8c21.892-5.607 53.218-22.967 75-22 21.782.967 34.018 20.26 55 20 20.982-.26 50.71-20.074 75-25 24.29-4.926 43.145 5.037 102 15" fill="none" stroke="#fff8e6" stroke-width="3" stroke-linecap="round"/><path d="M0 200h0c18.99 1.747 37.98 3.494 59 1 21.02-2.494 44.069-9.23 68-13 23.931-3.77 48.745-4.576 70-1 21.255 3.576 38.95 11.535 63 16 24.05 4.465 54.456 5.438 79 5 24.544-.438 43.226-2.285 66-2 22.774.285 49.64 2.701 69-3 19.36-5.701 31.213-19.52 51-16 19.787 3.52 47.507 24.382 71 26 23.493 1.618 42.76-16.006 62-18 19.24-1.994 38.455 11.643 65 11 26.545-.643 60.421-15.564 85-15 24.579.564 39.86 16.615 61 17 21.14.385 48.141-14.894 71-16 22.859-1.106 41.576 11.962 60 11 18.424-.962 36.553-15.953 56-16 19.447-.047 40.21 14.851 68 19 27.79 4.149 62.606-2.452 84-5s29.367-1.043 51 1 56.928 4.625 79 7c22.072 2.375 30.923 4.543 53 2s57.38-9.798 85-13c27.62-3.202 47.56-2.352 65 0 17.44 2.352 32.384 6.207 51 7 18.616.793 40.904-1.476 65-3 24.096-1.524 50-2.303 75-4s49.093-4.31 74-1c24.907 3.31 50.629 12.545 70 14 19.371 1.455 32.392-4.87 52-8 19.608-3.13 45.804-3.065 112-3" fill="none" stroke="#ffeec5" stroke-width="3" stroke-linecap="round"/><path d="M0 250h0c26.619-2.134 53.238-4.268 75-3 21.762 1.268 38.668 5.937 57 4 18.332-1.937 38.092-10.48 62-11 23.908-.52 51.966 6.983 74 5 22.034-1.983 38.044-13.452 60-10 21.956 3.452 49.858 21.826 72 23 22.142 1.174 38.526-14.851 58-20 19.474-5.149 42.04.58 68 7s55.317 13.532 81 16 47.692.293 69-6 41.914-16.703 61-15c19.086 1.703 36.653 15.52 59 18 22.347 2.48 49.473-6.375 71-11s37.456-5.019 59-2c21.544 3.019 48.703 9.451 72 9 23.297-.451 42.733-7.786 64-13 21.267-5.214 44.364-8.307 68-3 23.636 5.307 47.811 19.016 72 20 24.189.984 48.392-10.755 68-13 19.608-2.245 34.622 5.003 56 7 21.378 1.997 49.119-1.259 71-3s37.902-1.969 61-4c23.098-2.031 53.273-5.866 79-9 25.727-3.134 47.006-5.567 65 1s32.701 22.135 54 22c21.299-.135 49.188-15.973 71-20 21.812-4.027 37.548 3.756 63 5 25.452 1.244 60.622-4.05 86-2s40.965 11.443 60 14c19.035 2.557 41.517-1.721 104-6" fill="none" stroke="#ffe39b" stroke-width="3" stroke-linecap="round"/><path d="M0 300h0c18.208-1.119 36.416-2.238 59-1 22.584 1.238 49.544 4.833 73 3 23.456-1.833 43.409-9.093 65-6s44.82 16.54 67 14c22.18-2.54 43.307-21.068 65-22 21.693-.932 43.95 15.732 68 21 24.05 5.268 49.895-.862 71-5 21.105-4.138 37.47-6.286 60-3 22.53 3.286 51.227 12.007 74 10 22.773-2.007 39.623-14.741 62-13 22.377 1.741 50.28 17.958 74 15 23.72-2.958 43.258-25.09 66-27 22.742-1.91 48.687 16.4 68 22 19.313 5.6 31.994-1.51 53-5s50.338-3.36 74-5c23.662-1.64 41.655-5.048 66-6s55.043.553 76 1c20.957.447 32.172-.163 52-3 19.828-2.837 48.268-7.901 75-4s51.757 16.768 73 16c21.243-.768 38.704-15.17 62-17s52.427 8.912 73 10c20.573 1.088 32.587-7.476 50-7 17.413.476 40.223 9.994 64 11 23.777 1.006 48.52-6.5 73-8 24.48-1.5 48.695 3.004 69 7s36.7 7.483 60 4c23.3-3.483 53.504-13.938 78-17 24.496-3.062 43.285 1.268 64 5 20.715 3.732 43.358 6.866 106 10" fill="none" stroke="#fff1cd" stroke-width="3" stroke-linecap="round"/><path d="M0 350h0c20.226-3.42 40.452-6.841 62-4 21.548 2.841 44.42 11.944 70 13 25.58 1.056 53.87-5.936 76-8 22.13-2.064 38.098.801 60 4s49.736 6.733 70 7c20.264.267 32.956-2.731 54-2 21.044.731 50.44 5.192 74 1 23.56-4.192 41.285-17.035 60-15 18.715 2.035 38.421 18.95 65 18 26.579-.95 60.03-19.764 84-29s38.46-8.893 57 0 41.127 26.336 64 29c22.873 2.664 46.03-9.452 70-17s48.753-10.529 71-6 41.958 16.566 63 21c21.042 4.434 43.416 1.263 68 0 24.584-1.263 51.38-.618 71-1 19.62-.382 32.066-1.793 51-4 18.934-2.207 44.358-5.212 71-7 26.642-1.788 54.503-2.36 74-4 19.497-1.64 30.63-4.349 55-1s61.979 12.754 86 16c24.021 3.246 34.455.331 53-1s45.201-1.08 69 1 44.74 5.988 68 0c23.26-5.988 48.84-21.873 70-21 21.16.873 37.898 18.502 61 23 23.102 4.498 52.566-4.135 76-8 23.434-3.865 40.838-2.961 61-3 20.162-.039 43.08-1.02 106-2" fill="none" stroke="#ffe299" stroke-width="3" stroke-linecap="round"/><path d="M0 400h0c25.863-3.138 51.725-6.277 73-5 21.275 1.277 37.961 6.968 56 7 18.039.032 37.43-5.596 61-5 23.57.596 51.321 7.417 78 11 26.679 3.583 52.287 3.929 74 2 21.713-1.929 39.533-6.131 61-11s46.583-10.403 68-7c21.417 3.403 39.136 15.745 61 18 21.864 2.255 47.873-5.577 71-4 23.127 1.577 43.371 12.561 65 8 21.629-4.561 44.642-24.668 66-28 21.358-3.332 41.062 10.11 66 18 24.938 7.89 55.112 10.228 76 7 20.888-3.228 32.49-12.022 52-11 19.51 1.022 46.926 11.862 68 13 21.074 1.138 35.807-7.424 61-13 25.193-5.576 60.846-8.165 84-11 23.154-2.835 33.81-5.917 51-4 17.19 1.917 40.912 8.833 67 16s54.54 14.585 76 11c21.46-3.585 35.926-18.174 56-22 20.074-3.826 45.756 3.11 68 4 22.244.89 41.048-4.267 66-5 24.952-.733 56.05 2.958 80 6 23.95 3.042 40.753 5.435 62 7 21.247 1.565 46.94 2.303 70-2 23.06-4.303 43.49-13.648 64-15 20.51-1.352 41.099 5.29 63 11 21.901 5.71 45.115 10.489 68 11 22.885.511 45.443-3.244 108-7" fill="none" stroke="#ffe5a4" stroke-width="3" stroke-linecap="round"/><path d="M0 450h0c24.417 7.714 48.835 15.428 70 14 21.165-1.428 39.079-12 61-14s47.85 4.57 69 4c21.15-.57 37.52-8.281 59-13 21.48-4.719 48.068-6.445 72-4 23.932 2.445 45.21 9.061 66 7s41.096-12.8 62-8c20.904 4.8 42.407 25.14 66 27 23.593 1.86 49.276-14.759 73-19 23.724-4.241 45.488 3.896 69 3 23.512-.896 48.771-10.826 71-11 22.229-.174 41.427 9.408 60 14 18.573 4.592 36.52 4.194 58 7 21.48 2.806 46.496 8.814 69 7 22.504-1.814 42.497-11.452 69-10s59.516 13.994 82 10c22.484-3.994 34.439-24.525 54-29 19.561-4.475 46.728 7.106 71 10s45.648-2.9 65-1c19.352 1.9 36.68 11.496 61 16s55.632 3.918 79 3c23.368-.918 38.792-2.167 59-5s45.2-7.249 69-8c23.8-.751 46.406 2.163 69 3 22.594.837 45.175-.404 66-2 20.825-1.596 39.892-3.546 60-8 20.108-4.454 41.256-11.41 66-8s53.085 17.187 78 23c24.915 5.813 46.404 3.66 67 1 20.596-2.66 40.298-5.83 100-9" fill="none" stroke="#feeec3" stroke-width="3" stroke-linecap="round"/><path d="M0 500h0c17.284-5.2 34.567-10.4 57-13 22.433-2.6 50.014-2.602 76 4 25.986 6.602 50.376 19.809 72 18 21.624-1.809 40.483-18.632 60-20 19.517-1.368 39.692 12.718 61 19s43.75 4.758 68-2 50.306-18.751 74-20c23.694-1.249 45.025 8.246 65 14s38.593 7.768 61 5c22.407-2.768 48.603-10.317 74-16s49.996-9.5 72-3c22.004 6.5 41.415 23.317 61 26s39.345-8.766 61-14 45.204-4.25 68-6 44.839-6.23 67-5c22.161 1.23 44.44 8.172 69 8 24.56-.172 51.4-7.458 74-7 22.6.458 40.96 8.66 60 15s38.757 10.816 61 7c22.243-3.816 47.012-15.925 69-18 21.988-2.075 41.195 5.884 66 8 24.805 2.116 55.208-1.612 75-4s28.972-3.435 52-6 59.903-6.647 86-1 41.415 21.024 58 20c16.585-1.024 34.436-18.448 56-17 21.564 1.448 46.842 21.77 70 20 23.158-1.77 44.196-25.63 69-27 24.804-1.37 53.372 19.752 77 26 23.628 6.248 42.314-2.376 101-11" fill="none" stroke="#fff1cd" stroke-width="3" stroke-linecap="round"/><path d="M0 550h0c16.552 7.748 33.104 15.495 58 13 24.896-2.495 58.137-15.233 82-22 23.863-6.767 38.348-7.565 60-1s50.472 20.49 75 23c24.528 2.51 44.765-6.398 66-13s43.469-10.898 66-7c22.531 3.898 45.36 15.99 65 16 19.64.01 36.091-12.061 57-18s46.274-5.745 70-3 45.811 8.042 65 10c19.189 1.958 35.481.578 59 3s54.265 8.647 77 8c22.735-.647 37.46-8.166 59-8 21.54.166 49.893 8.018 75 12 25.107 3.982 46.966 4.095 69 0s44.244-12.399 68-19c23.756-6.601 49.06-11.5 71-9 21.94 2.5 40.519 12.401 60 16s39.865.896 61 4c21.135 3.104 43.02 12.015 64 8 20.98-4.015 41.057-20.957 65-24 23.943-3.043 51.754 7.812 76 14 24.246 6.188 44.926 7.71 66 9 21.074 1.29 42.541 2.346 63 1 20.459-1.346 39.909-5.094 60-10s40.823-10.97 66-10c25.177.97 54.8 8.971 78 14 23.2 5.029 39.977 7.085 59 4 19.023-3.085 40.292-11.31 64-14 23.708-2.69 49.854.155 116 3" fill="none" stroke="#ffe298" stroke-width="3" stroke-linecap="round"/><path d="M0 600h0c20.398 4.366 40.795 8.732 64 9 23.205.268 49.217-3.563 71-7s39.337-6.482 60-6c20.663.482 44.435 4.49 69 6 24.565 1.51 49.922.52 71 0 21.078-.52 37.876-.571 59-1 21.124-.429 46.573-1.235 73-1 26.427.235 53.831 1.512 74 4 20.169 2.488 33.103 6.186 53 1s46.759-19.257 73-20c26.241-.743 51.863 11.842 73 14 21.137 2.158 37.789-6.11 59-7 21.211-.89 46.982 5.6 68 10s37.285 6.71 60 7c22.715.29 51.88-1.44 74 1 22.12 2.44 37.198 9.047 58 4 20.802-5.047 47.329-21.75 72-27s47.486.953 68 1c20.514.047 38.727-6.063 63 0 24.273 6.063 54.605 24.3 78 25 23.395.7 39.853-16.138 59-21 19.147-4.862 40.983 2.25 65 4 24.017 1.75 50.216-1.862 71 0s36.154 9.199 56 13c19.846 3.801 44.168 4.067 70 5 25.832.933 53.173 2.532 78-5 24.827-7.532 47.14-24.194 66-24 18.86.194 34.27 17.245 54 23 19.73 5.755 43.78.216 68-3s48.61-4.108 113-5" fill="none" stroke="#ffedc1" stroke-width="3" stroke-linecap="round"/><path d="M0 650h0c15.527 1.832 31.054 3.665 57 0s62.311-12.827 85-13c22.689-.173 31.702 8.643 51 15 19.298 6.357 48.88 10.254 76 12 27.12 1.746 51.776 1.34 74-2 22.224-3.34 42.014-9.616 61-9 18.986.616 37.167 8.122 61 10 23.833 1.878 53.318-1.873 77-8 23.682-6.127 41.56-14.629 63-15 21.44-.371 46.441 7.389 69 14 22.559 6.611 42.675 12.074 60 7 17.325-5.074 31.86-20.683 56-21 24.14-.317 57.885 14.66 82 21 24.115 6.34 38.599 4.042 58-2 19.401-6.042 43.72-15.83 67-14s45.52 15.275 70 14c24.48-1.275 51.198-17.272 74-21 22.802-3.728 41.688 4.814 61 5 19.312.186 39.05-7.985 61-6 21.95 1.985 46.112 14.127 71 16 24.888 1.873 50.5-6.523 71-11s35.887-5.036 56-3c20.113 2.036 44.953 6.665 69 9 24.047 2.335 47.301 2.375 72 0 24.699-2.375 50.842-7.166 73-10 22.158-2.834 40.333-3.71 60-2s40.828 6.005 64 8c23.172 1.995 48.354 1.691 72 2 23.646.309 45.756 1.231 67 2 21.244.769 41.622 1.384 102 2" fill="none" stroke="#fff0cc" stroke-width="3" stroke-linecap="round"/><path d="M0 700h0c20.954.172 41.908.344 65 1s48.321 1.795 72 4c23.679 2.205 45.807 5.477 70 8 24.193 2.523 50.451 4.298 69-1s29.388-17.668 51-17c21.612.668 53.998 14.374 81 14 27.002-.374 48.62-14.829 68-14 19.38.829 36.52 16.941 58 18 21.48 1.059 47.297-12.936 69-16 21.703-3.064 39.29 4.802 58 6 18.71 1.198 38.544-4.272 65-5 26.456-.728 59.534 3.285 81 2 21.466-1.285 31.321-7.867 51-10s49.182.181 74 2c24.818 1.819 44.95 3.14 67 1 22.05-2.14 46.014-7.744 70-8 23.986-.256 47.992 4.834 67 11 19.008 6.166 33.018 13.406 56 13 22.982-.406 54.935-8.458 81-9 26.065-.542 46.24 6.426 64 8 17.76 1.574 33.101-2.246 54-5s47.355-4.443 75-5c27.645-.557 56.479.017 76 2s29.73 5.375 51 5 53.602-4.516 78-6c24.398-1.484 40.86-.312 63 4s49.955 11.764 71 11c21.045-.764 35.32-9.744 55-11 19.68-1.256 44.766 5.213 69 6 24.234.787 47.617-4.106 111-9" fill="none" stroke="#ffe29a" stroke-width="3" stroke-linecap="round"/><path d="M0 750h0c24.412-4.588 48.825-9.176 72-11 23.175-1.824 45.114-.883 63 3 17.886 3.883 31.72 10.71 55 16 23.28 5.29 56.01 9.046 79 6 22.99-3.046 36.243-12.894 59-17 22.757-4.106 55.02-2.469 79 2 23.98 4.469 39.68 11.77 61 10 21.32-1.77 48.26-12.61 72-16 23.74-3.39 44.278.667 67 3s47.629 2.94 67 3c19.371.06 33.207-.43 56-2s54.544-4.219 76-3c21.456 1.219 32.618 6.306 51 9 18.382 2.694 43.985 2.996 69 0s49.44-9.29 75-11c25.56-1.71 52.251 1.164 75 3 22.749 1.836 41.553 2.636 60 6 18.447 3.364 36.535 9.294 59 12 22.465 2.706 49.305 2.19 75-2 25.695-4.19 50.243-12.05 69-14 18.757-1.95 31.72 2.011 53 7s50.873 11.005 74 8c23.127-3.005 39.788-15.031 63-16 23.212-.969 52.976 9.12 77 15 24.024 5.88 42.31 7.548 64 2 21.69-5.548 46.784-18.313 67-18 20.216.313 35.553 13.702 55 16 19.447 2.298 43.005-6.497 68-12 24.995-5.503 51.427-7.715 75-7 23.573.715 44.286 4.358 105 8" fill="none" stroke="#ffe7ac" stroke-width="3" stroke-linecap="round"/><path d="M0 800h0c22.704-8.653 45.408-17.306 66-15 20.592 2.306 39.07 15.572 62 20 22.93 4.428 50.31.02 74-4 23.69-4.02 43.69-7.651 67-6 23.31 1.651 49.93 8.585 73 13 23.07 4.415 42.593 6.311 61 4 18.407-2.311 35.7-8.829 58-8 22.3.829 49.609 9.005 75 9 25.391-.005 48.864-8.19 70-10 21.136-1.81 39.933 2.758 59-2s38.403-18.84 62-16 51.454 22.602 76 28 45.78-3.567 68-9 45.427-7.332 69-11 47.511-9.103 67-5c19.489 4.103 34.528 17.744 56 18 21.472.256 49.375-12.873 74-16 24.625-3.127 45.972 3.748 65 11s35.739 14.881 57 11c21.261-3.881 47.073-19.273 72-22 24.927-2.727 48.968 7.212 73 8 24.032.788 48.056-7.576 68-6 19.944 1.576 35.808 13.093 59 12s53.711-14.796 76-19c22.289-4.204 36.348 1.092 58 5s50.899 6.428 73 10 37.058 8.194 60 7c22.942-1.194 53.869-8.206 76-11 22.131-2.794 35.466-1.37 55 0s45.267 2.685 111 4" fill="none" stroke="#fff5dc" stroke-width="3" stroke-linecap="round"/><path d="M0 850h0c23.384-2.369 46.767-4.737 67-3 20.233 1.737 37.315 7.58 60 9 22.685 1.42 50.974-1.584 75-7 24.026-5.416 43.79-13.245 63-11 19.21 2.245 37.868 14.564 63 20 25.132 5.436 56.74 3.988 81-2 24.26-5.988 41.171-16.515 63-16 21.829.515 48.574 12.072 69 16 20.426 3.928 34.532.228 52 0 17.468-.228 38.297 3.017 63 2 24.703-1.017 53.28-6.296 78-4 24.72 2.296 45.582 12.167 67 10s43.392-16.374 65-20c21.608-3.626 42.851 3.327 67 4s51.203-4.935 72-6c20.797-1.065 35.338 2.414 57 9s50.446 16.279 72 13c21.554-3.279 35.877-19.53 58-27 22.123-7.47 52.047-6.161 75 1 22.953 7.161 38.934 20.175 60 22 21.066 1.825 47.215-7.54 69-10 21.785-2.46 39.204 1.984 60 1s44.969-7.394 72-9c27.031-1.606 56.92 1.594 80 7s39.35 13.017 58 12c18.65-1.017 39.683-10.662 63-13 23.317-2.338 48.92 2.631 72 3 23.08.369 43.637-3.862 64-8s40.532-8.182 63-7c22.468 1.182 47.234 7.591 112 14" fill="none" stroke="#ffeab5" stroke-width="3" stroke-linecap="round"/><path d="M0 900h0c21.968-1.484 43.936-2.967 68-3 24.064-.033 50.223 1.385 72 1s39.173-2.574 58-5c18.827-2.426 39.084-5.088 62-2 22.916 3.088 48.491 11.925 71 11 22.509-.925 41.951-11.613 66-11 24.049.613 52.704 12.526 73 16s32.233-1.493 55-3c22.767-1.507 56.366.445 79-2s34.305-9.288 56-11c21.695-1.712 53.414 1.708 80 0s48.04-8.543 65-4c16.96 4.543 29.43 20.465 54 22 24.57 1.535 61.242-11.315 83-15 21.758-3.685 28.6 1.797 50 6s57.354 7.127 80 6c22.646-1.127 31.984-6.304 52-7 20.016-.696 50.712 3.089 75 5 24.288 1.911 42.169 1.949 66 1 23.831-.949 53.614-2.884 77-2 23.386.884 40.376 4.587 61 5 20.624.413 44.883-2.463 64-8 19.117-5.537 33.094-13.735 57-11 23.906 2.735 57.742 16.401 84 16 26.258-.401 44.94-14.87 66-18 21.06-3.13 44.5 5.081 68 12s47.062 12.545 66 11c18.938-1.545 33.253-10.262 52-10 18.747.262 41.928 9.503 66 11 24.072 1.497 49.036-4.752 114-11" fill="none" stroke="#ffe8ae" stroke-width="3" stroke-linecap="round"/><path d="M0 950h0c17.618 4.098 35.237 8.197 58 8 22.763-.197 50.67-4.689 73-11s39.08-14.442 64-9 58.01 24.457 81 26c22.99 1.543 35.88-14.384 57-19 21.12-4.616 50.467 2.08 74 5s41.25 2.063 60 2c18.75-.063 38.53.668 62-2s50.631-8.734 76-10 48.945 2.269 71 3c22.055.731 42.588-1.34 61 4s34.703 18.092 54 17c19.297-1.092 41.598-16.028 68-23 26.402-6.972 56.903-5.982 80 1s38.79 19.954 59 20c20.21.046 44.937-12.834 66-12 21.063.834 38.461 15.383 59 14 20.539-1.383 44.218-18.697 67-24 22.782-5.303 44.669 1.405 68 6 23.331 4.595 48.108 7.076 69 6 20.892-1.076 37.898-5.71 63-6 25.102-.29 58.3 3.76 83 6 24.7 2.24 40.902 2.667 59 4 18.098 1.333 38.093 3.573 63 0 24.907-3.573 54.725-12.957 78-11 23.275 1.957 40.007 15.257 60 14 19.993-1.257 43.245-17.069 64-17 20.755.069 39.01 16.019 64 21 24.99 4.981 56.711-1.005 81-5s41.144-5.997 98-8" fill="none" stroke="#fff2d1" stroke-width="3" stroke-linecap="round"/></svg>